<svg id="formIcon" xmlns="http://www.w3.org/2000/svg" width="85" height="84.563" viewBox="0 0 85 84.563">
  <defs>
    <style>
      .cls-1 {
        fill: #610200;
        stroke: #d1925c;
        stroke-width: 1px;
      }

      .cls-2 {
        fill: #d1925c;
        fill-rule: evenodd;
      }
    </style>
  </defs>
  <circle class="cls-1" cx="42.5" cy="42.063" r="42"/>
  <path class="cls-2" d="M50.146,46.841a1.378,1.378,0,0,0-1.372-1.376H34.187a1.376,1.376,0,0,0,0,2.751H48.775A1.378,1.378,0,0,0,50.146,46.841ZM34.187,41.2H48.775a1.376,1.376,0,0,0,0-2.752H34.187a1.378,1.378,0,0,0-1.372,1.376A1.409,1.409,0,0,0,34.187,41.2ZM32.815,53.9a1.378,1.378,0,0,0,1.372,1.376h11.89l0.64-2.8H34.187A1.388,1.388,0,0,0,32.815,53.9Zm22.591,4.769a0.869,0.869,0,0,1-.869.871H28.379a0.87,0.87,0,0,1-.869-0.871V24.278a0.869,0.869,0,0,1,.869-0.871H44.75v7.108a3.6,3.6,0,0,0,3.613,3.623h7.042v8.346l2.79-2.8V33.679a3.657,3.657,0,0,0-1.1-2.568l-9.329-9.4a3.592,3.592,0,0,0-2.561-1.055H28.379a3.626,3.626,0,0,0-3.613,3.623V58.718a3.626,3.626,0,0,0,3.613,3.623H54.537a3.665,3.665,0,0,0,3.658-3.623V54.086l-2.79,2.8v1.789ZM47.54,25.378l5.945,5.962H48.363a0.842,0.842,0,0,1-.869-0.871v-5.09H47.54Zm1.783,31.414,3.521-.78a1.838,1.838,0,0,0,.412-0.229l1.006-1.009-3.887-3.9-1.006,1.009a0.634,0.634,0,0,0-.229.413l-0.823,3.531A0.832,0.832,0,0,0,49.323,56.792Zm2.515-7.383,3.887,3.9,9.009-9.034-3.887-3.944Zm16.143-9.585-2.744-2.752a0.8,0.8,0,0,0-1.143,0l-1.738,1.743,3.887,3.9,1.738-1.7A0.86,0.86,0,0,0,67.981,39.824Z"/>
</svg>
