<svg version="1.2" xmlns="http://www.w3.org/2000/svg" viewBox="0 0 223 40" width="223" height="40">
	<style>
		tspan { white-space:pre } 
		.s0 { fill: #610200 } 
		.s1 { fill: #d1925c } 
	</style>
	<g id="About uS">
		<path id="Shape 4" class="s0" d="m145.63 17.95q0.74 0.05 1.49 0.09 0.75 0.05 1.49 0.1 0.74 0.05 1.48 0.09 0.75 0.05 1.49 0.09 0.74 0.04 1.48 0.08 0.74 0.04 1.48 0.08 0.74 0.03 1.47 0.06 0.74 0.03 1.48 0.05 0.64 0 1.27-0.12c1.02-0.18 2.07 0.19 3.1 0.26 1.52 0.11 3.05-0.23 4.56-0.05q0.64 0.08 1.28 0.16 0.43 0.02 0.85 0 0.42-0.03 0.83 0.03c2.46 0.39 4.97 0.41 7.43 0.23q0.58-0.04 1.16-0.06 0.73-0.04 1.47-0.09 0.73-0.04 1.46-0.08 0.73-0.03 1.46-0.03 0.73-0.01 1.47 0.03 0.64 0.03 1.29 0.12 0.65 0.08 1.3 0.19 0.65 0.1 1.3 0.19 0.65 0.09 1.3 0.14 0.59 0.03 1.17-0.03 0.59-0.06 1.17-0.11 0.58-0.05 1.17-0.02 0.58 0.03 1.15 0.13 0.58 0.1 1.16 0.2 0.57 0.11 1.15 0.15c0.3 0.03 0.6-0.04 0.9-0.11 0.3-0.08 0.6-0.16 0.9-0.15q0.62 0.04 1.23 0.11 0.62 0.08 1.24 0.14 0.62 0.07 1.23 0.09 0.71 0 1.43-0.04 0.71-0.05 1.42-0.08 0.71-0.03 1.42 0.01 0.62 0.05 1.23 0.09 0.62 0.04 1.23 0 0.62-0.04 1.24-0.22 0.45-0.11 0.92-0.06 0.47 0.04 0.94 0.08 0.63 0.03 1.25 0.06 0.63 0.02 1.26 0.05 0.62 0.03 1.25 0.06 0.63 0.02 1.25 0.04 0.63 0.02 1.26 0.03 0.75 0.01 1.51 0.01 0.76-0.01 1.52-0.02 0.76-0.02 1.52-0.03c0.35-0.01 0.61 0.07 0.6 0.37-0.03 0.25-0.28 0.32-0.6 0.33q-0.61 0.03-1.22 0.06-0.62 0.04-1.23 0.08-0.61 0.04-1.22 0.08-0.61 0.05-1.22 0.09-0.66 0.04-1.33 0.05-0.67 0.01-1.33 0-0.67 0-1.33-0.02-0.66-0.02-1.33-0.03-0.66-0.02-1.32 0-0.6 0.02-1.2 0.16c-0.4 0.08-0.8 0.17-1.21 0.21q-0.4 0.03-0.82-0.04-0.41-0.07-0.83-0.09-0.61 0.01-1.21 0.02-0.61 0.01-1.22 0.03-0.6 0.02-1.2 0.03-0.68 0.01-1.36 0.03-0.68 0.01-1.36 0.03-0.68 0.01-1.36 0.03-0.7 0.02-1.4 0.03-0.7 0.02-1.39 0-0.64 0-1.27 0c-1.37 0.01-2.73-0.1-4.09-0.08-6.92 0.12-13.85 0.37-20.78 0.23q-2.05-0.04-4.11-0.12c-2.77-0.08-5.54-0.13-8.31 0.17q-0.62 0.07-1.25 0.12-0.62 0.06-1.25 0.09-0.56 0-1.12-0.09c-1.67-0.25-3.39-0.14-5.06 0.1-1.27 0.19-2.54 0.15-3.81 0.07-1.41-0.08-2.82-0.19-4.22-0.13-0.31 0.02-0.63 0.07-0.92-0.19-0.16-0.15-0.32-0.44-0.38-0.84q-0.04-0.24-0.04-0.49c-0.03-0.73 0.04-1.22 0.25-1.75q0.07-0.21 0.17-0.33c0.08-0.09 0.17-0.1 0.26-0.1q1.07-0.05 2.14-0.02c0.71 0.02 1.41-0.04 2.12-0.05q0.62-0.02 1.25 0.02zm-68.26 3.92q-0.75-0.05-1.49-0.1-0.75-0.05-1.49-0.09-0.74-0.05-1.49-0.09-0.74-0.05-1.48-0.09-0.74-0.05-1.48-0.09-0.74-0.03-1.48-0.07-0.74-0.03-1.48-0.06-0.73-0.03-1.47-0.05-0.64 0-1.27 0.12c-1.02 0.17-2.07-0.19-3.1-0.26-1.52-0.11-3.05 0.23-4.56 0.04q-0.64-0.08-1.29-0.15-0.42-0.02-0.84 0-0.42 0.02-0.83-0.03c-2.46-0.39-4.97-0.42-7.43-0.24q-0.58 0.05-1.16 0.07-0.74 0.04-1.47 0.08-0.73 0.05-1.46 0.08-0.73 0.04-1.46 0.04-0.73 0.01-1.47-0.03-0.64-0.03-1.29-0.12-0.65-0.09-1.3-0.19-0.65-0.11-1.3-0.2-0.65-0.09-1.3-0.13-0.59-0.03-1.17 0.03-0.59 0.05-1.17 0.11-0.59 0.05-1.17 0.02-0.58-0.03-1.15-0.13-0.58-0.1-1.16-0.21-0.57-0.1-1.16-0.15c-0.29-0.03-0.59 0.05-0.89 0.12-0.3 0.08-0.6 0.16-0.9 0.15q-0.62-0.04-1.23-0.11-0.62-0.08-1.24-0.15-0.62-0.07-1.23-0.09-0.72 0-1.43 0.05-0.71 0.04-1.42 0.07-0.71 0.04-1.42 0-0.62-0.05-1.24-0.1-0.61-0.04-1.22 0.01-0.62 0.04-1.24 0.22-0.45 0.11-0.92 0.06-0.47-0.05-0.94-0.08-0.63-0.03-1.26-0.06-0.62-0.03-1.25-0.06-0.62-0.02-1.25-0.05-0.63-0.02-1.25-0.04-0.63-0.02-1.26-0.04-0.76-0.01-1.52 0-0.76 0.01-1.51 0.02-0.76 0.01-1.52 0.03c-0.35 0-0.61-0.07-0.6-0.38 0.03-0.24 0.28-0.31 0.6-0.32q0.61-0.03 1.22-0.06 0.61-0.04 1.22-0.08 0.62-0.04 1.23-0.09 0.61-0.04 1.21-0.08 0.67-0.05 1.34-0.06 0.67-0.01 1.33 0 0.66 0.01 1.33 0.03 0.66 0.02 1.33 0.03 0.66 0.02 1.32 0 0.6-0.03 1.2-0.16c0.4-0.09 0.8-0.18 1.21-0.22q0.4-0.02 0.82 0.05 0.41 0.07 0.83 0.09 0.61-0.01 1.21-0.02 0.61-0.02 1.21-0.03 0.61-0.02 1.21-0.03 0.68-0.02 1.36-0.03 0.68-0.02 1.36-0.03 0.68-0.02 1.36-0.03 0.7-0.02 1.4-0.04 0.7-0.02 1.39 0 0.64 0.01 1.27 0c1.37 0 2.73 0.11 4.09 0.08 6.92-0.11 13.85-0.36 20.78-0.23q2.05 0.05 4.11 0.12c2.77 0.09 5.54 0.13 8.31-0.16q0.62-0.07 1.25-0.13 0.62-0.05 1.25-0.08 0.56 0 1.12 0.09c1.67 0.25 3.39 0.13 5.06-0.11 1.27-0.18 2.54-0.14 3.81-0.07 1.41 0.09 2.82 0.19 4.22 0.13 0.31-0.01 0.63-0.07 0.92 0.2 0.16 0.15 0.32 0.44 0.38 0.84q0.04 0.23 0.04 0.48c0.03 0.74-0.04 1.23-0.25 1.76q-0.07 0.2-0.17 0.33c-0.08 0.09-0.17 0.1-0.26 0.1q-1.07 0.05-2.14 0.02c-0.71-0.02-1.41 0.04-2.12 0.05q-0.62 0.01-1.25-0.02zm53.51-1.88c0 0.9-1.73 1.66-1.86 2.51-0.12 0.88 1.32 2.1 1.08 2.93-0.25 0.85-2.13 1.09-2.49 1.89-0.37 0.8 0.67 2.37 0.19 3.11-0.48 0.74-2.34 0.44-2.92 1.11-0.58 0.66-0.02 2.46-0.69 3.03-0.67 0.58-2.38-0.22-3.12 0.25-0.74 0.48-0.71 2.36-1.52 2.73-0.8 0.36-2.21-0.89-3.06-0.64-0.84 0.24-1.35 2.06-2.23 2.18-0.87 0.12-1.86-1.47-2.76-1.47-0.9 0-1.9 1.59-2.76 1.47-0.88-0.12-1.39-1.94-2.23-2.18-0.85-0.25-2.26 1-3.06 0.64-0.81-0.37-0.78-2.25-1.52-2.73-0.74-0.47-2.45 0.33-3.12-0.25-0.67-0.57-0.11-2.37-0.69-3.03-0.58-0.67-2.44-0.37-2.92-1.11-0.48-0.74 0.56-2.31 0.19-3.11-0.36-0.8-2.24-1.04-2.49-1.89-0.24-0.83 1.2-2.05 1.08-2.93-0.13-0.85-1.86-1.61-1.86-2.51 0-0.89 1.73-1.65 1.86-2.51 0.12-0.88-1.32-2.09-1.08-2.92 0.25-0.85 2.13-1.09 2.49-1.89 0.37-0.8-0.67-2.37-0.19-3.11 0.48-0.74 2.34-0.44 2.92-1.11 0.58-0.66 0.02-2.46 0.69-3.04 0.67-0.57 2.38 0.23 3.12-0.24 0.74-0.48 0.71-2.36 1.52-2.73 0.8-0.36 2.21 0.89 3.06 0.64 0.84-0.25 1.35-2.06 2.23-2.18 0.86-0.13 1.86 1.47 2.76 1.47 0.9 0 1.89-1.6 2.76-1.47 0.88 0.12 1.39 1.93 2.23 2.18 0.85 0.25 2.26-1 3.06-0.64 0.81 0.37 0.78 2.25 1.52 2.73 0.74 0.47 2.45-0.33 3.12 0.24 0.67 0.58 0.11 2.38 0.69 3.04 0.58 0.67 2.44 0.37 2.92 1.11 0.48 0.74-0.56 2.31-0.19 3.11 0.36 0.8 2.24 1.04 2.49 1.89 0.24 0.83-1.2 2.04-1.08 2.92 0.13 0.86 1.86 1.62 1.86 2.51z"/>
		<path id="Shape 6" class="s1" d="m116.95 20.36l3.1-5.23h-6.12l-3.01-5.33-3.02 5.33h-6.12l3.1 5.23-3.1 5.24h6.12l3.02 5.33 3.01-5.33h6.12zm-7.09-5.24l1.06-1.86 1.07 1.86zm6.12 6.93l1.06 1.86h-2.13zm-1.06-5.24h2.13l-1.07 1.87zm-2.93 8.79l-1.06 1.95-1.06-1.86h2.12zm-3.19-1.69l-2.04-3.55 2.04-3.55h4.17l2.04 3.55-2.04 3.55zm-1.86 0h-2.13l1.06-1.86zm-2.13-7.11h2.13l-1.06 1.87z"/>
	</g>
</svg>