<svg id="phoneicon" xmlns="http://www.w3.org/2000/svg" width="31.25" height="31.24" viewBox="0 0 31.25 31.24">
  <defs>
    <style>
      .cls-1 {
        fill: #610200;
        stroke: #d1925c;
        stroke-width: 1px;
      }

      .cls-2 {
        fill: #d1925c;
        fill-rule: evenodd;
      }
    </style>
  </defs>
  <circle class="cls-1" cx="15.625" cy="15.62" r="15.125"/>
  <path class="cls-2" d="M442.4,4904.28a4.8,4.8,0,0,1,2.2-1.37,1.091,1.091,0,0,1,1.285.58l1.108,2.15c0.6,1.16-.424,1.4-1.138,2.46a0.89,0.89,0,0,0-.191.88,14.69,14.69,0,0,0,5.536,5.53c0.5,0.3,1.363-.56,1.686-0.88,0.562-.57.907-0.83,1.66-0.44l2.147,1.1a1.1,1.1,0,0,1,.583,1.29c-0.531,1.65-1.633,2.96-3.487,2.94-4.723-.06-12.073-7.4-12.131-12.12a3.137,3.137,0,0,1,.737-2.12h0Zm7.569-.43a6.368,6.368,0,0,1,6.37,6.37,0.5,0.5,0,0,0,.99,0,7.363,7.363,0,0,0-7.36-7.36,0.5,0.5,0,0,0,0,.99h0Zm0,4.8a1.566,1.566,0,0,1,1.565,1.57,0.5,0.5,0,0,0,.989,0,2.551,2.551,0,0,0-2.554-2.55,0.49,0.49,0,0,0,0,.98h0Zm0-2.4a3.97,3.97,0,0,1,3.968,3.97,0.5,0.5,0,0,0,.989,0,4.958,4.958,0,0,0-4.957-4.96,0.5,0.5,0,0,0,0,.99h0Z" transform="translate(-434.375 -4894.38)"/>
</svg>
