<svg version="1.2" xmlns="http://www.w3.org/2000/svg" viewBox="0 0 51 50" width="51" height="50">
	<style>
		tspan { white-space:pre } 
		.s0 { fill: #610200 } 
		.s1 { fill: none;stroke: #d1925c;stroke-miterlimit:100;stroke-width: 1.5 } 
		.s2 { fill: #d1925c } 
	</style>
	<g id="Header">
		<g id="Whatsapp BTN">
			<path id="Shape 6 copy" class="s0" d="m42.78 7.2c-4.72-4.7-10.99-7.29-17.68-7.29-13.77 0-24.98 11.15-24.98 24.86-0.01 4.37 1.14 8.66 3.33 12.44l-3.54 12.88 13.24-3.46c3.65 1.98 7.76 3.03 11.94 3.03h0.01c13.77 0 24.98-11.16 24.99-24.87 0-6.64-2.6-12.89-7.31-17.59z"/>
			<path id="Shape 6 copy 2" fill-rule="evenodd" class="s1" d="m18.86 14.38c-0.47-1.04-0.96-1.06-1.41-1.08l-1.19-0.01c-0.42 0-1.1 0.16-1.67 0.78-0.57 0.62-2.18 2.12-2.18 5.18 0 3.06 2.23 6.01 2.55 6.43 0.31 0.41 4.31 6.89 10.66 9.38 5.27 2.07 6.35 1.66 7.49 1.56 1.15-0.11 3.69-1.51 4.21-2.96 0.52-1.45 0.52-2.69 0.37-2.95-0.16-0.26-0.57-0.42-1.2-0.73-0.62-0.31-3.69-1.81-4.26-2.02-0.58-0.21-0.99-0.31-1.41 0.31-0.42 0.62-1.61 2.02-1.97 2.44-0.37 0.41-0.73 0.46-1.36 0.15-0.62-0.31-2.63-0.97-5.02-3.08-1.85-1.65-3.11-3.68-3.47-4.31-0.37-0.62-0.04-0.95 0.27-1.26 0.28-0.28 0.63-0.73 0.94-1.09 0.31-0.37 0.42-0.63 0.62-1.04 0.21-0.41 0.11-0.78-0.05-1.09-0.15-0.31-1.37-3.38-1.92-4.61"/>
			<path id="Shape 6 copy 2" class="s1" d="m25.1 45.46h-0.01c-3.72 0-7.38-1-10.56-2.88l-0.76-0.45-7.86 2.05 2.1-7.62-0.5-0.79c-2.08-3.29-3.18-7.1-3.17-10.99 0-11.4 9.32-20.67 20.77-20.67 5.51-0.01 10.8 2.17 14.68 6.06 3.91 3.87 6.1 9.14 6.08 14.62-0.01 11.4-9.32 20.67-20.77 20.67z"/>
			<path id="Shape 6 copy 3" fill-rule="evenodd" class="s2" d="m18.86 14.38c-0.47-1.04-0.96-1.06-1.41-1.08l-1.19-0.01c-0.42 0-1.1 0.16-1.67 0.78-0.57 0.62-2.18 2.12-2.18 5.18 0 3.06 2.23 6.01 2.55 6.43 0.31 0.41 4.31 6.89 10.66 9.38 5.27 2.07 6.35 1.66 7.49 1.56 1.15-0.11 3.69-1.51 4.21-2.96 0.52-1.45 0.52-2.69 0.37-2.95-0.16-0.26-0.57-0.42-1.2-0.73-0.62-0.31-3.69-1.81-4.26-2.02-0.58-0.21-0.99-0.31-1.41 0.31-0.42 0.62-1.61 2.02-1.97 2.44-0.37 0.41-0.73 0.46-1.36 0.15-0.62-0.31-2.63-0.97-5.02-3.08-1.85-1.65-3.11-3.68-3.47-4.31-0.37-0.62-0.04-0.95 0.27-1.26 0.28-0.28 0.63-0.73 0.94-1.09 0.31-0.37 0.42-0.63 0.62-1.04 0.21-0.41 0.11-0.78-0.05-1.09-0.15-0.31-1.37-3.38-1.92-4.61"/>
		</g>
	</g>
</svg>